<svg id="图层_1" data-name="图层 1" xmlns="http://www.w3.org/2000/svg" xmlns:xlink="http://www.w3.org/1999/xlink" viewBox="0 0 90 90"><defs><style>.cls-1{fill:#e1eef9;}.cls-2{fill:url(#未命名的渐变_18);}.cls-3{fill:url(#未命名的渐变_110);}.cls-4{fill:url(#未命名的渐变_91);}.cls-5{fill:url(#未命名的渐变_91-2);}.cls-6{fill:url(#未命名的渐变_91-3);}.cls-7{fill:#fff;}.cls-8{fill:#9ad8d5;}.cls-9{fill:url(#未命名的渐变_102);}.cls-10{fill:url(#未命名的渐变_102-2);}.cls-11{fill:#d1e1e5;}</style><linearGradient id="未命名的渐变_18" x1="45" y1="70" x2="45" y2="81" gradientUnits="userSpaceOnUse"><stop offset="0" stop-color="#e1eef9"/><stop offset="0.28" stop-color="#ddecf8"/><stop offset="0.54" stop-color="#d2e5f7"/><stop offset="0.8" stop-color="#bfdbf3"/><stop offset="1" stop-color="#aacff0"/></linearGradient><linearGradient id="未命名的渐变_110" x1="45" y1="121" x2="45" y2="142" gradientTransform="matrix(1, 0, 0, -1, 0, 151)" gradientUnits="userSpaceOnUse"><stop offset="0.7" stop-color="#e1eef9"/><stop offset="0.85" stop-color="#ecf3fa"/><stop offset="1" stop-color="#f3f6fb"/></linearGradient><radialGradient id="未命名的渐变_91" cx="82.52" cy="18.43" r="3.86" gradientUnits="userSpaceOnUse"><stop offset="0" stop-color="#bcdbe3"/><stop offset="0.21" stop-color="#b5d5de"/><stop offset="0.51" stop-color="#a3c6d0"/><stop offset="0.85" stop-color="#85adb8"/><stop offset="1" stop-color="#76a0ad"/></radialGradient><radialGradient id="未命名的渐变_91-2" cx="73.52" cy="18.43" r="3.86" xlink:href="#未命名的渐变_91"/><radialGradient id="未命名的渐变_91-3" cx="64.52" cy="18.43" r="3.86" xlink:href="#未命名的渐变_91"/><linearGradient id="未命名的渐变_102" x1="12.61" y1="38.59" x2="78" y2="38.59" gradientUnits="userSpaceOnUse"><stop offset="0" stop-color="#b9ddf7"/><stop offset="0.39" stop-color="#b5dbf7"/><stop offset="0.76" stop-color="#aad7f7"/><stop offset="1" stop-color="#9ed2f7"/></linearGradient><linearGradient id="未命名的渐变_102-2" x1="39.63" y1="59.97" y2="59.97" xlink:href="#未命名的渐变_102"/></defs><path class="cls-1" d="M87.27,81H2.73A2.78,2.78,0,0,1,0,78.16V11.84A2.78,2.78,0,0,1,2.73,9H87.27A2.78,2.78,0,0,1,90,11.84V78.16A2.78,2.78,0,0,1,87.27,81Z"/><path class="cls-2" d="M87.27,70H2.73C1.22,70,0,70.28,0,70.63v7.53A2.78,2.78,0,0,0,2.73,81H87.27A2.78,2.78,0,0,0,90,78.16V70.63C90,70.28,88.78,70,87.27,70Z"/><path class="cls-3" d="M87.27,30H2.73C1.22,30,0,29.72,0,29.37V11.84A2.78,2.78,0,0,1,2.73,9H87.27A2.78,2.78,0,0,1,90,11.84V29.37C90,29.72,88.78,30,87.27,30Z"/><circle class="cls-4" cx="82.67" cy="16.69" r="2.32"/><circle class="cls-5" cx="73.67" cy="16.69" r="2.32"/><circle class="cls-6" cx="64.67" cy="16.69" r="2.32"/><rect class="cls-7" x="4.53" y="22.4" width="80.93" height="53.19" rx="1.64"/><path class="cls-8" d="M30.19,67.69H15.62a3,3,0,0,1-3-3V55.37a3,3,0,0,1,3-3H30.19a3,3,0,0,1,3,3v9.21A3.09,3.09,0,0,1,30.19,67.69Z"/><path class="cls-9" d="M75,30.93H15.62a3,3,0,0,0-3,3v9.32a3,3,0,0,0,3,3H75a3.08,3.08,0,0,0,3-3.1V33.93A3,3,0,0,0,75,30.93Z"/><path class="cls-10" d="M75,52.36H42.63a3,3,0,0,0-3,3v9.21a3,3,0,0,0,3,3H75a3,3,0,0,0,3-3V55.37A3,3,0,0,0,75,52.36Z"/><path class="cls-11" d="M83.83,23.2a.85.85,0,0,1,.84.84V74a.84.84,0,0,1-.84.84H6.17A.84.84,0,0,1,5.33,74V24a.85.85,0,0,1,.84-.84H83.83m0-.8H6.17A1.64,1.64,0,0,0,4.53,24V74a1.64,1.64,0,0,0,1.64,1.64H83.83A1.64,1.64,0,0,0,85.47,74V24a1.64,1.64,0,0,0-1.64-1.64Z"/></svg>