<?xml version="1.0" standalone="no"?><!DOCTYPE svg PUBLIC "-//W3C//DTD SVG 1.1//EN" "http://www.w3.org/Graphics/SVG/1.1/DTD/svg11.dtd"><svg t="1662938790345" class="icon" viewBox="0 0 1024 1024" version="1.1" xmlns="http://www.w3.org/2000/svg" p-id="5711" xmlns:xlink="http://www.w3.org/1999/xlink" width="200" height="200"><path d="M912 144v416h-179.52v-32h147.52v-352h-736v352h175.488v32H112v-416z" fill="#646E7F" p-id="5712"></path><path d="M488.128 914.24h188.64a64 64 0 0 0 64-64v-137.024a64 64 0 0 0-49.28-62.272l-144.192-33.984v-148.8a44.352 44.352 0 1 0-88.704 0v268.256l-80.096-46.784a64 64 0 0 0-80.32 12.96L288 714.144l151.424 177.632a64 64 0 0 0 48.704 22.496z" fill="#00C296" p-id="5713"></path><path d="M501.248 272a144 144 0 0 1 115.04 230.624l-4.832 6.08-24.48-20.64a112 112 0 1 0-171.328 0.16l4.8 5.344-23.104 22.144A144 144 0 0 1 501.216 272z" fill="#00C296" p-id="5714"></path></svg>