<svg id="图层_1" data-name="图层 1" xmlns="http://www.w3.org/2000/svg" xmlns:xlink="http://www.w3.org/1999/xlink" viewBox="0 0 90 90"><defs><style>.cls-1{fill:#e1eef9;}.cls-2{fill:url(#未命名的渐变_18);}.cls-3{fill:url(#未命名的渐变_110);}.cls-4{fill:url(#未命名的渐变_91);}.cls-5{fill:url(#未命名的渐变_91-2);}.cls-6{fill:url(#未命名的渐变_91-3);}.cls-7{fill:#fff;}.cls-8{fill:#d1e1e5;}.cls-9{fill:#9ad8d5;}.cls-10{fill:#f9aaaa;}.cls-11{fill:#c1cfdb;}.cls-12{fill:#d2bae5;}.cls-13{fill:#2e525b;}</style><linearGradient id="未命名的渐变_18" x1="45" y1="70" x2="45" y2="81" gradientUnits="userSpaceOnUse"><stop offset="0" stop-color="#e1eef9"/><stop offset="0.28" stop-color="#ddecf8"/><stop offset="0.54" stop-color="#d2e5f7"/><stop offset="0.8" stop-color="#bfdbf3"/><stop offset="1" stop-color="#aacff0"/></linearGradient><linearGradient id="未命名的渐变_110" x1="45" y1="121" x2="45" y2="142" gradientTransform="matrix(1, 0, 0, -1, 0, 151)" gradientUnits="userSpaceOnUse"><stop offset="0.7" stop-color="#e1eef9"/><stop offset="0.85" stop-color="#ecf3fa"/><stop offset="1" stop-color="#f3f6fb"/></linearGradient><radialGradient id="未命名的渐变_91" cx="82.52" cy="18.43" r="3.86" gradientUnits="userSpaceOnUse"><stop offset="0" stop-color="#bcdbe3"/><stop offset="0.21" stop-color="#b5d5de"/><stop offset="0.51" stop-color="#a3c6d0"/><stop offset="0.85" stop-color="#85adb8"/><stop offset="1" stop-color="#76a0ad"/></radialGradient><radialGradient id="未命名的渐变_91-2" cx="73.52" cy="18.43" r="3.86" xlink:href="#未命名的渐变_91"/><radialGradient id="未命名的渐变_91-3" cx="64.52" cy="18.43" r="3.86" xlink:href="#未命名的渐变_91"/></defs><path class="cls-1" d="M87.27,81H2.73A2.78,2.78,0,0,1,0,78.16V11.84A2.78,2.78,0,0,1,2.73,9H87.27A2.78,2.78,0,0,1,90,11.84V78.16A2.78,2.78,0,0,1,87.27,81Z"/><path class="cls-2" d="M87.27,70H2.73C1.22,70,0,70.28,0,70.63v7.53A2.78,2.78,0,0,0,2.73,81H87.27A2.78,2.78,0,0,0,90,78.16V70.63C90,70.28,88.78,70,87.27,70Z"/><path class="cls-3" d="M87.27,30H2.73C1.22,30,0,29.72,0,29.37V11.84A2.78,2.78,0,0,1,2.73,9H87.27A2.78,2.78,0,0,1,90,11.84V29.37C90,29.72,88.78,30,87.27,30Z"/><circle class="cls-4" cx="82.67" cy="16.69" r="2.32"/><circle class="cls-5" cx="73.67" cy="16.69" r="2.32"/><circle class="cls-6" cx="64.67" cy="16.69" r="2.32"/><rect class="cls-7" x="4.53" y="22.04" width="80.93" height="53.19" rx="1.64"/><path class="cls-8" d="M83.83,22.84a.85.85,0,0,1,.84.84V73.6a.84.84,0,0,1-.84.83H6.17a.84.84,0,0,1-.84-.83V23.68a.85.85,0,0,1,.84-.84H83.83m0-.8H6.17a1.65,1.65,0,0,0-1.64,1.64V73.6a1.64,1.64,0,0,0,1.64,1.63H83.83a1.64,1.64,0,0,0,1.64-1.63V23.68A1.65,1.65,0,0,0,83.83,22Z"/><path class="cls-9" d="M19.3,56.62h-9a.54.54,0,1,1,0-1.07h9a.54.54,0,1,1,0,1.07Z"/><path class="cls-10" d="M55.3,56.62h-9a.54.54,0,1,1,0-1.07h9a.54.54,0,1,1,0,1.07Z"/><path class="cls-11" d="M42.3,56.62h-19a.54.54,0,1,1,0-1.07h19a.54.54,0,1,1,0,1.07Z"/><path class="cls-11" d="M79.3,56.62h-19a.54.54,0,1,1,0-1.07h19a.54.54,0,1,1,0,1.07Z"/><path class="cls-11" d="M60.56,60.87H10.26a.54.54,0,0,1-.54-.54.54.54,0,0,1,.54-.54h50.3a.54.54,0,0,1,.54.54A.54.54,0,0,1,60.56,60.87Z"/><path class="cls-12" d="M69.57,60.87H65.16a.54.54,0,0,1-.53-.54.54.54,0,0,1,.53-.54h4.41a.54.54,0,0,1,.54.54A.54.54,0,0,1,69.57,60.87Z"/><path class="cls-12" d="M79,60.87H73.89a.54.54,0,0,1-.54-.54.54.54,0,0,1,.54-.54H79a.54.54,0,0,1,.54.54A.54.54,0,0,1,79,60.87Z"/><path class="cls-11" d="M74.13,65.12H10.26a.54.54,0,1,1,0-1.08H74.13a.54.54,0,0,1,0,1.08Z"/><path class="cls-11" d="M56.87,69.37H10.26a.54.54,0,1,1,0-1.08H56.87a.54.54,0,0,1,0,1.08Z"/><path class="cls-9" d="M64.37,69.37H61.08a.54.54,0,1,1,0-1.08h3.29a.54.54,0,0,1,0,1.08Z"/><path class="cls-13" d="M37.45,43.37a1,1,0,0,1-.72-.31L33,39.13a1,1,0,0,1,0-1.37l3.73-3.93a1,1,0,0,1,1.44,1.37l-3.09,3.25,3.09,3.24a1,1,0,0,1,0,1.4A1,1,0,0,1,37.45,43.37Z"/><path class="cls-13" d="M52.56,43.37a1,1,0,0,1-.68-.28,1,1,0,0,1,0-1.4l3.09-3.24L51.84,35.2a1,1,0,0,1,1.44-1.37L57,37.76a1,1,0,0,1,0,1.37l-3.74,3.93A1,1,0,0,1,52.56,43.37Z"/><path class="cls-13" d="M42.34,45.77a1.08,1.08,0,0,1-.38-.08,1,1,0,0,1-.53-1.3l5.32-12.66a1,1,0,1,1,1.83.77L43.26,45.16A1,1,0,0,1,42.34,45.77Z"/></svg>