<?xml version="1.0" standalone="no"?>
<!DOCTYPE svg PUBLIC "-//W3C//DTD SVG 1.1//EN"
 "http://www.w3.org/Graphics/SVG/1.1/DTD/svg11.dtd">
<!-- Created with svg_stack (http://github.com/astraw/svg_stack) -->
<svg xmlns="http://www.w3.org/2000/svg" xmlns:sodipodi="http://sodipodi.sourceforge.net/DTD/sodipodi-0.dtd" xmlns:xlink="http://www.w3.org/1999/xlink" version="1.1" width="370.0" height="200.0">
  <defs/>
  <g id="id0:id0" transform="matrix(0.1953125,0,0,0.1953125,0.0,0.0)">
    <path d="M847.872 240.128v688c0 26.56-21.408 48-48 48h-576c-26.56 0-48-21.44-48-48v-832c0-26.592 21.44-48 48-48h432z" fill="#E9EDED" p-id="3312"/>
    <path d="M160 768.128v160c0 35.456 28.544 64 64 64h576c35.456 0 64-28.544 64-64v-160H160z" fill="#f9aaaa" p-id="3313" data-spm-anchor-id="a313x.7781069.0.i7" class="selected"/>
    <path d="M847.872 240.128h-144c-26.56 0-48-21.44-48-48v-144" fill="#f9aaaa" p-id="3314" data-spm-anchor-id="a313x.7781069.0.i9" class="selected"/>
    <path d="M432.736 384.064a16 16 0 0 0-10.976 4.8l-96.96 95.776a16 16 0 0 0-0.416 0.416 16 16 0 0 0 1.664 23.808l95.68 94.56a16 16 0 1 0 22.528-22.72l-85.568-84.576 85.568-84.48a16 16 0 0 0-11.52-27.584z m157.824 0a16 16 0 0 0-11.008 27.552l85.504 84.48-85.504 84.576a16 16 0 1 0 22.496 22.752l95.648-94.56a16 16 0 0 0 5.44-17.504 16 16 0 0 0-1.28-2.912 16 16 0 0 0-0.608-1.12 16 16 0 0 0-0.192-0.256 16 16 0 0 0-0.192-0.256 16 16 0 0 0-0.8-0.992 16 16 0 0 0-0.192-0.256 16 16 0 0 0-0.864-0.96 16 16 0 0 0-0.064 0l-0.64-0.544a16 16 0 0 0-0.48-0.512l-95.776-94.688a16 16 0 0 0-11.488-4.8z" fill="#f9aaaa" p-id="3315" data-spm-anchor-id="a313x.7781069.0.i8" class="selected"/>
    <path d="M654.88 799.744a16 16 0 0 0-11.84 6.624L608 853.312l-35.136-46.944-0.128 0.064a16 16 0 0 0-13.056-6.368 16 16 0 0 0-15.744 16.192v127.68a16 16 0 1 0 32 0v-80.128l15.936 21.248a16 16 0 0 0 28.864 4.448l19.2-25.6v80.032a16 16 0 1 0 32 0v-126.816a16 16 0 0 0-15.424-17.376 16 16 0 0 0-1.632 0z m-383.136 0.32a16 16 0 0 0-15.744 16.192V943.936a16 16 0 1 0 32 0v-47.808h64v47.808a16 16 0 1 0 32 0v-61.312a16 16 0 0 0 0-5.12v-61.248a16 16 0 0 0-16.256-16.192 16 16 0 0 0-15.744 16.192v47.872H288v-47.872a16 16 0 0 0-16.256-16.192z m192 0a16 16 0 0 0-1.6 0.064H432a16 16 0 1 0 0 32h16v111.808a16 16 0 1 0 32 0v-111.808h16a16 16 0 1 0 0-32h-30.304a16 16 0 0 0-1.92-0.064z m255.936 0a16 16 0 0 0-15.744 16.192v126.496a16 16 0 0 0 0.64 5.824 16 16 0 0 0 0 0.064 16 16 0 0 0 0.096 0.416 16 16 0 0 0 0.448 1.12 16 16 0 0 0 0.864 1.824 16 16 0 0 0 0.64 0.992 16 16 0 0 0 0.192 0.32 16 16 0 0 0 0.736 0.96 16 16 0 0 0 0.832 0.864 16 16 0 0 0 0.352 0.416 16 16 0 0 0 0.832 0.704 16 16 0 0 0 0.448 0.384 16 16 0 0 0 0.352 0.32 16 16 0 0 0 1.12 0.736 16 16 0 0 0 2.464 1.248 16 16 0 0 0 0.864 0.32 16 16 0 0 0 5.376 0.864h63.552a16 16 0 1 0 0-32h-47.808v-111.872a16 16 0 0 0-16.256-16.192z" fill="#E9EDED" p-id="3316"/>
  </g>
  <g id="id1:id1" transform="matrix(0.1953125,0,0,0.1953125,170.0,0.0)">
    <path d="M847.872 240.128v688c0 26.56-21.408 48-48 48h-576c-26.56 0-48-21.44-48-48v-832c0-26.592 21.44-48 48-48h432z" fill="#E9EDED" p-id="2239"/>
    <path d="M160 768.128v160c0 35.456 28.544 64 64 64h576c35.456 0 64-28.544 64-64v-160H160z" fill="#9ad8d5" p-id="2240" data-spm-anchor-id="a313x.7781069.0.i0" class="selected"/>
    <path d="M847.872 240.128h-144c-26.56 0-48-21.44-48-48v-144" fill="#9ad8d5" p-id="2241" data-spm-anchor-id="a313x.7781069.0.i3" class="selected"/>
    <path d="M432.256 320.128c-35.2 0-64 28.8-64 64v32c0 18.016-14.016 32-32 32a16 16 0 0 0-15.936 12.992 16 16 0 0 0 0 0.064 16 16 0 0 0 4.736 14.56 16 16 0 0 0 2.496 1.92 16 16 0 0 0 4.448 1.92 16 16 0 0 0 3.136 0.48 16 16 0 0 0 1.12 0.064c17.984 0 32 13.984 32 32v32c0 35.2 28.8 64 64 64a16 16 0 1 0 0-32c-18.016 0-32-13.984-32-32v-32c0-19.136-8.736-36.256-22.208-48a63.68 63.68 0 0 0 22.208-48v-32c0-18.016 13.984-32 32-32a16 16 0 1 0 0-32z m157.856 0a16 16 0 0 0 1.632 32c18.016 0 32 13.984 32 32v32c0 19.168 8.736 36.224 22.208 48-13.44 11.744-22.208 28.864-22.208 48v32c0 18.016-13.984 32-32 32a16 16 0 1 0 0 32c35.2 0 64-28.8 64-64v-32c0-18.016 14.016-32 32-32a16 16 0 0 0 10.368-3.616 16 16 0 0 0 1.216-1.152 16 16 0 0 0-11.584-27.232c-17.984 0-32-13.984-32-32v-32c0-35.2-28.8-64-64-64a16 16 0 0 0-1.6 0z" fill="#9ad8d5" p-id="2242" data-spm-anchor-id="a313x.7781069.0.i1" class="selected"/>
    <path d="M334.496 800.128a16 16 0 0 0-3.36 0.672c-41.664 3.712-75.008 37.44-75.008 79.328 0 42.08 33.696 75.904 75.616 79.296a16 16 0 0 0 4.64 0.704h32a16 16 0 1 0 0-32h-29.824c-28.544 0-50.432-21.44-50.432-48s21.888-48 50.432-48h29.568a16 16 0 1 0 0-32h-32a16 16 0 0 0-1.6 0z m128 0a16 16 0 0 0-1.984 0.384c-24.64 1.92-44.384 22.528-44.384 47.616 0 25.28 20.064 46.08 44.992 47.68a16 16 0 0 0 3.008 0.32h32c9.152 0 16 6.848 16 16 0 9.152-6.848 16-16 16h-64a16 16 0 1 0 0 32h64a16 16 0 0 0 3.296-0.384 48.096 48.096 0 0 0 44.704-47.616c0-25.152-19.84-45.888-44.576-47.68a16 16 0 0 0-3.424-0.32h-32a15.616 15.616 0 0 1-16-16c0-9.152 6.848-16 16-16h64a16 16 0 1 0 0-32h-62.88a16 16 0 0 0-1.12 0 16 16 0 0 0-1.6 0z m159.744 0a16 16 0 0 0-1.984 0.384c-24.64 1.92-44.384 22.528-44.384 47.616 0 25.28 20.096 46.08 44.992 47.68a16 16 0 0 0 3.008 0.32h32c9.152 0 16 6.848 16 16 0 9.152-6.848 16-16 16h-64a16 16 0 1 0 0 32h64a16 16 0 0 0 3.328-0.384 48.096 48.096 0 0 0 44.672-47.616c0-25.152-19.84-45.888-44.544-47.68a16 16 0 0 0-3.456-0.32h-32a15.616 15.616 0 0 1-16-16c0-9.152 6.848-16 16-16h64a16 16 0 1 0 0-32h-62.88a16 16 0 0 0-1.12 0 16 16 0 0 0-1.6 0z" fill="#E9EDED" p-id="2243"/>
  </g>
</svg>
