<?xml version="1.0" standalone="no"?><!DOCTYPE svg PUBLIC "-//W3C//DTD SVG 1.1//EN" "http://www.w3.org/Graphics/SVG/1.1/DTD/svg11.dtd"><svg t="1662939238726" class="icon" viewBox="0 0 1024 1024" version="1.1" xmlns="http://www.w3.org/2000/svg" p-id="7286" xmlns:xlink="http://www.w3.org/1999/xlink" width="200" height="200"><path d="M354.176 368a48 48 0 0 1-48 48H128a48 48 0 0 1-48-48v-192A48 48 0 0 1 128 128h178.176a48 48 0 0 1 48 48l-0.032 73.568 463.616 0.032v201.536h-32l-0.032-169.568H354.144zM306.176 160H128a16 16 0 0 0-16 16v192a16 16 0 0 0 16 16h178.176a16 16 0 0 0 16-16v-192a16 16 0 0 0-16-16zM240 588.8v156.64h431.584v-86.4a48 48 0 0 1 43.392-47.776l4.608-0.192h178.176a48 48 0 0 1 48 48v192a48 48 0 0 1-48 48h-178.176a48 48 0 0 1-48-48v-73.6H208v-188.704h32z m657.76 54.272h-178.176a16 16 0 0 0-16 16v192a16 16 0 0 0 16 16h178.176a16 16 0 0 0 16-16v-192a16 16 0 0 0-16-16z" fill="#01c296" p-id="7287"></path></svg>