<svg width="228" height="162" viewBox="0 0 228 162" fill="none" xmlns="http://www.w3.org/2000/svg">
<path d="M200.733 55.438C199.666 56.5671 198.83 57.9096 198.27 59.421L48.6053 43.6935C42.0173 43.0001 36.0073 44.8226 31.4375 48.4056C36.1317 42.3777 43.7955 38.9371 52.446 39.8528L200.733 55.438Z" fill="url(#paint0_linear)"/>
<path d="M25.9073 135.934C25.6405 136.672 25.3027 137.365 24.9026 138.023C24.4403 138.779 23.898 139.481 23.2845 140.104L25.9073 135.934ZM25.9073 135.934L27.3031 136.076L25.9073 135.934ZM10.7491 123.619L10.7492 123.619C11.5502 123.373 12.433 123.273 13.352 123.373C13.352 123.373 13.3521 123.373 13.3522 123.373L13.3359 123.523C17.0255 123.914 20.0039 127.212 20.0039 130.893C20.0039 131.56 19.9061 132.2 19.7194 132.787L10.7491 123.619ZM10.7491 123.619C8.25823 124.386 6.51796 126.649 6.51796 129.497C6.51796 133.246 9.56363 136.617 13.3201 137.008C16.4123 137.335 19.0229 135.559 19.8626 132.831L10.7491 123.619ZM203.166 53.6641L203.167 53.6636C205.316 52.3476 207.95 51.7144 210.808 52.0134C218.093 52.7789 224.009 59.312 224.009 66.6049C224.009 68.9782 223.376 71.1383 222.279 72.9461C221.805 73.7274 221.244 74.4465 220.604 75.0775L220.603 75.0782C218.191 77.4903 214.716 78.7913 210.839 78.3869L210.823 78.536L210.839 78.3868C205.087 77.7888 200.208 73.5821 198.394 68.2634L198.363 68.1727L198.268 68.1627L49.5898 52.533L49.5895 52.5329C45.5905 52.1205 41.91 53.0976 38.9993 55.0827C38.4594 55.4427 37.9474 55.847 37.4632 56.2774L37.4628 56.2778C34.3543 59.0628 32.4341 63.1489 32.4341 67.8851C32.4341 77.3421 40.0942 85.8164 49.5584 86.8113L176.65 100.174L176.665 100.025L176.65 100.174C183.758 100.916 190.197 104.48 194.86 109.629L194.971 109.529L194.86 109.629C197.682 112.744 199.849 116.432 201.114 120.438L201.114 120.439C201.954 123.056 202.405 125.815 202.405 128.626C202.405 131.437 201.954 134.087 201.115 136.525L201.115 136.526C200.285 138.973 199.075 141.198 197.538 143.149L197.538 143.149C197.088 143.723 196.611 144.27 196.108 144.8C196.108 144.801 196.107 144.801 196.107 144.801L195.42 145.498L195.353 145.556L195.352 145.556L195.348 145.561C190.669 150.019 184.036 152.406 176.681 151.637L27.3188 135.927L27.3183 135.927L25.9225 135.785L25.806 135.773L25.7662 135.883C25.5031 136.611 25.1697 137.295 24.7745 137.945C24.3178 138.692 23.7825 139.385 23.1777 139.998L23.1773 139.999C20.7742 142.454 17.2725 143.79 13.3516 143.377C6.06579 142.612 0.15 136.079 0.15 128.795C0.15 124.927 1.81036 121.637 4.45933 119.505L4.46028 119.505C4.84544 119.189 5.2487 118.909 5.67941 118.645C7.82849 117.329 10.4713 116.705 13.3202 117.004C19.0639 117.611 23.9337 121.782 25.7475 127.092L25.7785 127.182L25.8738 127.192L175.36 142.902C180.096 143.404 184.388 141.934 187.488 139.157L187.488 139.157C188.368 138.367 189.158 137.469 189.832 136.481C191.53 134.001 192.516 130.94 192.516 127.55C192.516 118.093 184.856 109.619 175.392 108.624L48.6208 95.3057C41.5127 94.5542 35.0733 90.9997 30.4105 85.8414L30.4102 85.8411C27.3404 82.4616 25.0409 78.3749 23.8382 73.9536L23.838 73.9528C23.2014 71.6629 22.8655 69.2848 22.8655 66.8538C22.8655 64.4228 23.2014 62.1166 23.8374 59.9525L23.8376 59.952C25.1891 55.2968 27.9004 51.3496 31.5294 48.5241L31.5298 48.5238C36.068 44.9656 42.039 43.1534 48.5893 43.8429L48.605 43.6937L48.5893 43.8429L198.254 59.5704L198.37 59.5826L198.41 59.4733C198.963 57.9806 199.789 56.6555 200.841 55.5412L200.842 55.541C201.526 54.813 202.306 54.1816 203.166 53.6641ZM217.641 65.9025C217.641 62.1442 214.595 58.7822 210.839 58.383C209.921 58.2831 209.038 58.3738 208.236 58.6291C205.745 59.3957 204.005 61.6591 204.005 64.4978C204.005 68.2555 207.042 71.627 210.808 72.0173C213.89 72.3446 216.51 70.5694 217.35 67.8328C217.541 67.2307 217.641 66.5841 217.641 65.9025Z" fill="#FF5432" stroke="url(#paint1_linear)" stroke-width="0.3"/>
<path d="M19.7194 132.786C18.9015 135.444 16.3587 137.178 13.3359 136.858C9.65522 136.476 6.66797 133.168 6.66797 129.497C6.66797 126.714 8.36608 124.509 10.7932 123.762C10.6065 124.349 10.5087 124.98 10.5087 125.647C10.5087 129.328 13.496 132.635 17.1767 133.017C18.0746 133.115 18.937 133.026 19.7194 132.786Z" fill="url(#paint2_linear)"/>
<path d="M217.207 67.7873C216.389 70.4545 213.837 72.1882 210.823 71.8681C207.134 71.4858 204.155 68.1785 204.155 64.4978C204.155 61.7239 205.853 59.519 208.281 58.7722C208.094 59.359 207.996 59.9902 207.996 60.657C207.996 64.3378 210.974 67.645 214.664 68.0273C215.562 68.1251 216.424 68.0362 217.207 67.7873Z" fill="url(#paint3_linear)"/>
<path d="M228 62.764C228 66.1158 226.756 69.0497 224.72 71.1745L220.71 75.1842C221.359 74.5441 221.928 73.815 222.408 73.0238C223.52 71.1923 224.16 69.0052 224.16 66.6048C224.16 59.2344 218.185 52.6376 210.824 51.8641C207.934 51.5618 205.267 52.2019 203.089 53.5355C205.383 49.757 209.703 47.5077 214.664 48.0234C222.026 48.7968 228 55.3937 228 62.764Z" fill="url(#paint4_linear)"/>
<path d="M206.396 124.785C206.396 127.612 205.942 130.279 205.098 132.733C203.995 135.987 202.217 138.867 199.923 141.215L199.452 141.686L196.216 144.904C196.723 144.371 197.203 143.82 197.656 143.242C199.203 141.277 200.421 139.036 201.257 136.574C202.101 134.12 202.555 131.453 202.555 128.625C202.555 125.798 202.101 123.024 201.257 120.393C199.985 116.365 197.807 112.658 194.971 109.528C190.286 104.354 183.813 100.771 176.665 100.024L49.574 86.6618C40.1855 85.6749 32.584 77.2644 32.584 67.8848C32.584 63.1906 34.4866 59.1453 37.5627 56.3892C38.0428 55.9625 38.5496 55.5624 39.083 55.2068C37.3938 57.6606 36.4247 60.6923 36.4247 64.0441C36.4247 73.4237 44.0262 81.8342 53.4147 82.821L180.506 96.1836C187.654 96.9304 194.126 100.513 198.812 105.688C201.648 108.808 203.826 112.525 205.098 116.552C205.942 119.184 206.396 121.958 206.396 124.785Z" fill="url(#paint5_linear)"/>
<path d="M189.708 136.396C189.041 137.374 188.259 138.263 187.387 139.045C184.32 141.792 180.07 143.251 175.376 142.753L25.8894 127.043C24.058 121.682 19.1414 117.468 13.3359 116.854C10.4553 116.552 7.77923 117.183 5.60103 118.517C5.16539 118.784 4.75642 119.068 4.36523 119.388L6.93462 116.739L7.02353 116.641C9.46845 114.018 13.1136 112.587 17.1766 113.014C22.9822 113.627 27.8987 117.841 29.7302 123.202L179.217 138.912C183.182 139.33 186.827 138.361 189.708 136.396Z" fill="url(#paint6_linear)"/>
<path d="M27.3027 136.076C27.1427 136.245 26.9827 136.405 26.8227 136.565L26.7604 136.627L23.2842 140.104C23.8976 139.481 24.44 138.779 24.9023 138.023C25.3024 137.365 25.6402 136.672 25.9069 135.934L27.3027 136.076Z" fill="#932007"/>
<g filter="url(#filter0_bf)">
<path d="M182.39 45.2867V143.083C182.39 148.187 180.248 152.552 176.807 155.433C179.11 152.676 180.479 149.067 180.479 144.995V47.1982C180.479 37.374 172.513 28.5812 162.698 27.5499L64.901 17.2724C60.18 16.7745 55.8948 18.1614 52.7119 20.8197C55.9659 16.9434 61.0691 14.7563 66.8124 15.3609L164.609 25.6384C174.424 26.6697 182.39 35.4626 182.39 45.2867Z" fill="url(#paint7_linear)" fill-opacity="0.6"/>
</g>
<g filter="url(#filter1_b)">
<path d="M180.479 47.198V144.995C180.479 149.067 179.11 152.676 176.808 155.432C173.554 159.318 168.441 161.514 162.698 160.909L64.9013 150.631C55.0772 149.591 47.1201 140.798 47.1201 130.974V33.1775C47.1201 28.0743 49.2716 23.7001 52.7123 20.8196C55.8952 18.1613 60.1804 16.7743 64.9013 17.2722L162.698 27.5498C172.513 28.5811 180.479 37.3739 180.479 47.198Z" fill="url(#paint8_linear)"/>
<path d="M162.714 160.76L162.698 160.909L162.714 160.76L64.9171 150.482C64.9171 150.482 64.9171 150.482 64.917 150.482C55.1685 149.45 47.2701 140.721 47.2701 130.974V33.1775C47.2701 28.118 49.4025 23.7863 52.8085 20.9347C55.9594 18.303 60.2041 16.9277 64.8856 17.4214L64.8857 17.4214L162.682 27.6989C172.422 28.7223 180.329 37.4514 180.329 47.198V144.995C180.329 149.032 178.972 152.608 176.692 155.336C173.471 159.182 168.408 161.359 162.714 160.76Z" stroke="url(#paint9_linear)" stroke-width="0.3"/>
</g>
<g filter="url(#filter2_d)">
<path d="M128.372 8.16413C123.892 5.17688 120.789 3.84329 117.73 3.15871C113.356 2.04738 109.453 1.5584 105.799 2.23409C100.198 3.2654 95.4772 5.18577 91.752 7.82628C90.5429 8.67978 89.4315 9.6133 88.4358 10.6179L87.9379 11.1158C80.5943 18.9218 79.5541 30.773 86.3376 44.1711C91.4764 54.3153 109.462 80.6138 112.449 83.441C112.796 83.2009 113.561 82.4274 114.645 81.245L114.672 81.2094C115.632 80.1692 116.815 78.8267 118.148 77.2531C125.065 69.1449 136.081 55.0799 140.286 46.7761C147.71 32.1154 139.272 15.4367 128.372 8.16413ZM126.301 40.6415C123.883 45.4514 118.771 48.4831 112.823 47.9941C104.243 47.2828 97.1219 39.5836 97.1219 31.013C97.1219 25.4742 100.1 20.9044 104.546 18.6817C106.83 17.5348 109.498 17.0014 112.343 17.2859C120.735 18.1038 127.67 25.6075 127.786 34.0003C127.821 36.4274 127.288 38.6856 126.301 40.6415Z" fill="#FF5432" fill-opacity="0.3"/>
</g>
<path d="M106.587 54.0847L106.587 54.0847C97.9301 53.3671 90.7483 45.6034 90.7483 36.9542C90.7483 31.359 93.7583 26.7371 98.2547 24.4888C100.565 23.3292 103.261 22.7905 106.134 23.0778C114.602 23.9032 121.595 31.4697 121.712 39.9394M106.587 54.0847L121.562 39.9414M106.587 54.0847C112.595 54.5787 117.765 51.5151 120.211 46.6503M106.587 54.0847L120.077 46.5827M121.712 39.9394L121.562 39.9414M121.712 39.9394C121.712 39.9393 121.712 39.9393 121.712 39.9392L121.562 39.9414M121.712 39.9394C121.748 42.39 121.209 44.6722 120.211 46.6503M121.562 39.9414C121.598 42.3686 121.064 44.6268 120.077 46.5827M120.211 46.6503C120.211 46.6502 120.211 46.6502 120.211 46.6501L120.077 46.5827M120.211 46.6503L120.077 46.5827M111.47 9.24526L111.47 9.24531L111.474 9.24625C114.509 9.92565 117.595 11.2497 122.066 14.2301C127.489 17.8484 132.303 23.8105 134.836 30.6925C137.368 37.5724 137.618 45.363 133.928 52.6495C129.732 60.9354 118.728 74.988 111.81 83.0969L111.81 83.0973C110.478 84.6698 109.297 86.0106 108.338 87.0488L108.333 87.0545L108.328 87.0606L108.306 87.0902C107.767 87.6783 107.308 88.1637 106.941 88.5316C106.637 88.836 106.402 89.0547 106.239 89.1851C105.869 88.8148 105.301 88.1376 104.575 87.2068C103.789 86.1993 102.822 84.9021 101.73 83.3921C99.5444 80.3722 96.8565 76.5043 94.1011 72.4074C88.5887 64.2109 82.8125 55.1073 80.2478 50.0445C73.4834 36.6842 74.5363 24.9073 81.822 17.1614L82.3182 16.6652L82.3187 16.6647C83.3079 15.6667 84.4124 14.7388 85.6149 13.89L85.6151 13.8898C89.3195 11.264 94.0191 9.35085 99.6027 8.32277L99.6028 8.32275C103.226 7.65282 107.104 8.13608 111.47 9.24526Z" fill="url(#paint10_linear)" stroke="url(#paint11_linear)" stroke-width="0.3"/>
<path d="M120.077 46.5826C117.659 51.3924 112.547 54.4242 106.599 53.9352C98.0198 53.2239 90.8984 45.5246 90.8984 36.9541C90.8984 31.4152 93.8768 26.8455 98.3221 24.6228C97.3797 26.5076 96.8463 28.668 96.8463 31.0063C96.8463 39.5857 103.959 47.285 112.538 47.9962C115.294 48.2274 117.864 47.694 120.077 46.5826Z" fill="url(#paint12_linear)"/>
<path d="M140.001 46.7783C134.044 58.5494 114.369 81.9051 112.164 83.4343L108.448 87.1506C109.408 86.1104 110.591 84.7679 111.924 83.1942C118.841 75.086 129.857 61.021 134.062 52.7172C141.486 38.0566 133.048 21.3778 122.149 14.1053C117.668 11.118 114.565 9.78442 111.506 9.09984C107.132 7.98851 103.229 7.49953 99.5753 8.17522C93.9742 9.20653 89.2533 11.1269 85.5281 13.7674C84.319 14.6209 83.2077 15.5544 82.2119 16.5591L88.053 10.7179C92.125 6.56602 98.0194 3.61433 105.514 2.23629C109.168 1.5606 113.071 2.04958 117.454 3.16091C120.504 3.84549 123.607 5.17908 128.087 8.16633C138.987 15.43 147.425 32.1176 140.001 46.7783Z" fill="url(#paint13_angular)"/>
<g filter="url(#filter3_f)">
<path d="M115.771 4.44546L107.559 6.72128L99.8028 10.2495L108.014 7.97366L115.771 4.44546Z" fill="#FCFBF4"/>
</g>
<g filter="url(#filter4_f)">
<path d="M115.954 10.2425L108.222 6.66062L100.027 4.32797L107.759 7.90982L115.954 10.2425Z" fill="#FCFBF4"/>
</g>
<defs>
<filter id="filter0_bf" x="46.7119" y="9.26123" width="141.679" height="152.171" filterUnits="userSpaceOnUse" color-interpolation-filters="sRGB">
<feFlood flood-opacity="0" result="BackgroundImageFix"/>
<feGaussianBlur in="BackgroundImage" stdDeviation="3"/>
<feComposite in2="SourceAlpha" operator="in" result="effect1_backgroundBlur"/>
<feBlend mode="normal" in="SourceGraphic" in2="effect1_backgroundBlur" result="shape"/>
<feGaussianBlur stdDeviation="0.5" result="effect2_foregroundBlur"/>
</filter>
<filter id="filter1_b" x="41.1201" y="11.1721" width="145.359" height="155.836" filterUnits="userSpaceOnUse" color-interpolation-filters="sRGB">
<feFlood flood-opacity="0" result="BackgroundImageFix"/>
<feGaussianBlur in="BackgroundImage" stdDeviation="3"/>
<feComposite in2="SourceAlpha" operator="in" result="effect1_backgroundBlur"/>
<feBlend mode="normal" in="SourceGraphic" in2="effect1_backgroundBlur" result="shape"/>
</filter>
<filter id="filter2_d" x="76.7939" y="0.925293" width="73.3017" height="93.5157" filterUnits="userSpaceOnUse" color-interpolation-filters="sRGB">
<feFlood flood-opacity="0" result="BackgroundImageFix"/>
<feColorMatrix in="SourceAlpha" type="matrix" values="0 0 0 0 0 0 0 0 0 0 0 0 0 0 0 0 0 0 127 0"/>
<feOffset dx="1" dy="5"/>
<feGaussianBlur stdDeviation="3"/>
<feColorMatrix type="matrix" values="0 0 0 0 0 0 0 0 0 0 0 0 0 0 0 0 0 0 0.2 0"/>
<feBlend mode="normal" in2="BackgroundImageFix" result="effect1_dropShadow"/>
<feBlend mode="normal" in="SourceGraphic" in2="effect1_dropShadow" result="shape"/>
</filter>
<filter id="filter3_f" x="97.8027" y="2.44556" width="19.9679" height="9.80402" filterUnits="userSpaceOnUse" color-interpolation-filters="sRGB">
<feFlood flood-opacity="0" result="BackgroundImageFix"/>
<feBlend mode="normal" in="SourceGraphic" in2="BackgroundImageFix" result="shape"/>
<feGaussianBlur stdDeviation="1" result="effect1_foregroundBlur"/>
</filter>
<filter id="filter4_f" x="98.0264" y="2.32788" width="19.9273" height="9.91451" filterUnits="userSpaceOnUse" color-interpolation-filters="sRGB">
<feFlood flood-opacity="0" result="BackgroundImageFix"/>
<feBlend mode="normal" in="SourceGraphic" in2="BackgroundImageFix" result="shape"/>
<feGaussianBlur stdDeviation="1" result="effect1_foregroundBlur"/>
</filter>
<linearGradient id="paint0_linear" x1="41.6495" y1="39.8057" x2="184.376" y2="62.76" gradientUnits="userSpaceOnUse">
<stop stop-color="#FFD8B7"/>
<stop offset="1" stop-color="#EE8E64"/>
</linearGradient>
<linearGradient id="paint1_linear" x1="112.022" y1="46.3783" x2="112.022" y2="57.4916" gradientUnits="userSpaceOnUse">
<stop stop-color="white"/>
<stop offset="0.807292" stop-color="white" stop-opacity="0.880208"/>
<stop offset="1" stop-color="white" stop-opacity="0"/>
</linearGradient>
<linearGradient id="paint2_linear" x1="8.00156" y1="123.727" x2="19.5594" y2="135.729" gradientUnits="userSpaceOnUse">
<stop stop-color="#DF4A0C"/>
<stop offset="1" stop-color="#BD2E08"/>
</linearGradient>
<linearGradient id="paint3_linear" x1="207.152" y1="57.4916" x2="221.42" y2="62.2437" gradientUnits="userSpaceOnUse">
<stop stop-color="#E04B0B"/>
<stop offset="1" stop-color="#B42607"/>
</linearGradient>
<linearGradient id="paint4_linear" x1="202.706" y1="49.9345" x2="227.6" y2="71.272" gradientUnits="userSpaceOnUse">
<stop stop-color="#F9D5B3"/>
<stop offset="0.197917" stop-color="#FAE2CE"/>
<stop offset="0.285897" stop-color="#FBE8DD"/>
<stop offset="0.364583" stop-color="#F8D9C6"/>
<stop offset="0.493095" stop-color="#F4C09E"/>
<stop offset="0.661458" stop-color="#F07631"/>
<stop offset="1" stop-color="#9F280E"/>
</linearGradient>
<linearGradient id="paint5_linear" x1="48.0093" y1="44.6001" x2="204.04" y2="148.176" gradientUnits="userSpaceOnUse">
<stop stop-color="#AE2B0F"/>
<stop offset="0.104233" stop-color="#E47856"/>
<stop offset="0.233909" stop-color="#F29C80"/>
<stop offset="0.658849" stop-color="#FACFBC"/>
<stop offset="0.760242" stop-color="#ED987A"/>
<stop offset="0.914584" stop-color="#DB4414"/>
<stop offset="0.97322" stop-color="#913400"/>
</linearGradient>
<linearGradient id="paint6_linear" x1="62.6786" y1="30.3752" x2="189.37" y2="141.508" gradientUnits="userSpaceOnUse">
<stop offset="0.0235372" stop-color="#FFB99B"/>
<stop offset="0.0880143" stop-color="#FAE9DF"/>
<stop offset="0.121349" stop-color="#FCF0EB"/>
<stop offset="0.138385" stop-color="#FCD8C4"/>
<stop offset="0.166454" stop-color="#FCBB96"/>
<stop offset="0.207606" stop-color="#F5683B"/>
<stop offset="0.547189" stop-color="#F4A389"/>
<stop offset="0.768366" stop-color="#FB9271"/>
<stop offset="0.937016" stop-color="#EC6A41"/>
<stop offset="1" stop-color="#D73400"/>
</linearGradient>
<linearGradient id="paint7_linear" x1="52.454" y1="15.2612" x2="176.923" y2="165.957" gradientUnits="userSpaceOnUse">
<stop stop-color="#F7F5DB"/>
<stop offset="0.350158" stop-color="#F6EACB"/>
<stop offset="0.501968" stop-color="#FCD5B0"/>
<stop offset="0.633187" stop-color="#FDD5AC"/>
<stop offset="1" stop-color="#FCCEAC"/>
</linearGradient>
<linearGradient id="paint8_linear" x1="75.1256" y1="10.8158" x2="98.1938" y2="168.046" gradientUnits="userSpaceOnUse">
<stop stop-color="#FE5432" stop-opacity="0.1"/>
<stop offset="0.726362" stop-color="#EB4929" stop-opacity="0.215"/>
<stop offset="1" stop-color="#D63D1F" stop-opacity="0.29"/>
</linearGradient>
<linearGradient id="paint9_linear" x1="86.2388" y1="21.9291" x2="135.582" y2="165.513" gradientUnits="userSpaceOnUse">
<stop stop-color="white"/>
<stop offset="0.447917" stop-color="white" stop-opacity="0.848958"/>
<stop offset="1" stop-color="white" stop-opacity="0"/>
</linearGradient>
<linearGradient id="paint10_linear" x1="87.5726" y1="8.14863" x2="116.912" y2="82.8298" gradientUnits="userSpaceOnUse">
<stop stop-color="#FF5432" stop-opacity="0.36"/>
<stop offset="0.0001" stop-color="#FF5432" stop-opacity="0.75"/>
<stop offset="1" stop-color="#CF2705" stop-opacity="0.79"/>
</linearGradient>
<linearGradient id="paint11_linear" x1="93.7961" y1="9.48222" x2="97.3523" y2="26.3744" gradientUnits="userSpaceOnUse">
<stop stop-color="white"/>
<stop offset="0.380208" stop-color="white" stop-opacity="0.854167"/>
<stop offset="1" stop-color="white" stop-opacity="0"/>
</linearGradient>
<linearGradient id="paint12_linear" x1="95.5743" y1="25.0409" x2="117.356" y2="52.6018" gradientUnits="userSpaceOnUse">
<stop offset="0.0001" stop-color="#DE4A0C"/>
<stop offset="1" stop-color="#BF2F09"/>
</linearGradient>
<radialGradient id="paint13_angular" cx="0" cy="0" r="1" gradientUnits="userSpaceOnUse" gradientTransform="translate(102.242 25.4855) rotate(47.1211) scale(42.4637)">
<stop offset="0.00112556" stop-color="#B62505"/>
<stop offset="0.085975" stop-color="#8C1900"/>
<stop offset="0.466771" stop-color="#FBDCD5"/>
<stop offset="0.59983" stop-color="#FAD8C6"/>
<stop offset="0.682271" stop-color="#FFEBE3"/>
<stop offset="0.74446" stop-color="#F9B092"/>
<stop offset="0.845675" stop-color="#F37946"/>
<stop offset="0.913353" stop-color="#DB490A"/>
</radialGradient>
</defs>
</svg>
