<svg id="图层_1" data-name="图层 1" xmlns="http://www.w3.org/2000/svg" xmlns:xlink="http://www.w3.org/1999/xlink" viewBox="0 0 90 90"><defs><style>.cls-1{fill:#e1eef9;}.cls-2{fill:url(#未命名的渐变_18);}.cls-3{fill:url(#未命名的渐变_110);}.cls-4{fill:url(#未命名的渐变_91);}.cls-5{fill:url(#未命名的渐变_91-2);}.cls-6{fill:url(#未命名的渐变_91-3);}.cls-7{fill:#fff;}.cls-8{fill:#9ed2f7;}.cls-9{fill:#ecf3fb;}.cls-10{fill:#9ad8d5;}.cls-11{fill:#9cb5bc;}.cls-12{fill:#d1e1e5;}</style><linearGradient id="未命名的渐变_18" x1="45" y1="70" x2="45" y2="81" gradientUnits="userSpaceOnUse"><stop offset="0" stop-color="#e1eef9"/><stop offset="0.28" stop-color="#ddecf8"/><stop offset="0.54" stop-color="#d2e5f7"/><stop offset="0.8" stop-color="#bfdbf3"/><stop offset="1" stop-color="#aacff0"/></linearGradient><linearGradient id="未命名的渐变_110" x1="45" y1="121" x2="45" y2="142" gradientTransform="matrix(1, 0, 0, -1, 0, 151)" gradientUnits="userSpaceOnUse"><stop offset="0.7" stop-color="#e1eef9"/><stop offset="0.85" stop-color="#ecf3fa"/><stop offset="1" stop-color="#f3f6fb"/></linearGradient><radialGradient id="未命名的渐变_91" cx="82.52" cy="18.43" r="3.86" gradientUnits="userSpaceOnUse"><stop offset="0" stop-color="#bcdbe3"/><stop offset="0.21" stop-color="#b5d5de"/><stop offset="0.51" stop-color="#a3c6d0"/><stop offset="0.85" stop-color="#85adb8"/><stop offset="1" stop-color="#76a0ad"/></radialGradient><radialGradient id="未命名的渐变_91-2" cx="73.52" cy="18.43" r="3.86" xlink:href="#未命名的渐变_91"/><radialGradient id="未命名的渐变_91-3" cx="64.52" cy="18.43" r="3.86" xlink:href="#未命名的渐变_91"/></defs><path class="cls-1" d="M87.27,81H2.73A2.78,2.78,0,0,1,0,78.16V11.84A2.78,2.78,0,0,1,2.73,9H87.27A2.78,2.78,0,0,1,90,11.84V78.16A2.78,2.78,0,0,1,87.27,81Z"/><path class="cls-2" d="M87.27,70H2.73C1.22,70,0,70.28,0,70.63v7.53A2.78,2.78,0,0,0,2.73,81H87.27A2.78,2.78,0,0,0,90,78.16V70.63C90,70.28,88.78,70,87.27,70Z"/><path class="cls-3" d="M87.27,30H2.73C1.22,30,0,29.72,0,29.37V11.84A2.78,2.78,0,0,1,2.73,9H87.27A2.78,2.78,0,0,1,90,11.84V29.37C90,29.72,88.78,30,87.27,30Z"/><circle class="cls-4" cx="82.67" cy="16.69" r="2.32"/><circle class="cls-5" cx="73.67" cy="16.69" r="2.32"/><circle class="cls-6" cx="64.67" cy="16.69" r="2.32"/><rect class="cls-7" x="4.53" y="22.4" width="80.93" height="53.19" rx="1.64"/><rect class="cls-7" x="50.68" y="28.76" width="7.01" height="2.34" rx="0.45"/><rect class="cls-7" x="68.33" y="28.76" width="7.01" height="2.34" rx="0.45"/><g id="编组-5"><rect id="矩形" class="cls-8" x="9" y="36" width="16" height="34" rx="1"/><g id="编组-4"><rect id="矩形备份" class="cls-7" x="13" y="40" width="8" height="2" rx="0.5"/><rect id="矩形备份-2" data-name="矩形备份" class="cls-7" x="13" y="48" width="8" height="2" rx="0.5"/><rect id="矩形备份-3" data-name="矩形备份" class="cls-7" x="13" y="56" width="8" height="2" rx="0.5"/><rect id="矩形备份-4" data-name="矩形备份" class="cls-7" x="13" y="64" width="8" height="2" rx="0.5"/></g></g><rect id="矩形-2" data-name="矩形" class="cls-9" x="28" y="36" width="53" height="34" rx="1"/><g id="编组-3"><rect id="矩形-3" data-name="矩形" class="cls-8" x="9" y="27" width="16" height="6" rx="1"/><rect id="矩形备份-5" data-name="矩形备份" class="cls-7" x="13" y="29" width="8" height="2" rx="0.5"/></g><rect id="矩形-4" data-name="矩形" class="cls-10" x="28" y="27" width="53" height="6" rx="1"/><g id="编组-2"><rect id="矩形备份-6" data-name="矩形备份" class="cls-7" x="36" y="29" width="8" height="2" rx="0.5"/><rect id="矩形备份-7" data-name="矩形备份" class="cls-7" x="50" y="29" width="8" height="2" rx="0.5"/><rect id="矩形备份-8" data-name="矩形备份" class="cls-7" x="64" y="29" width="8" height="2" rx="0.5"/></g><g id="编组-2-2" data-name="编组-2"><rect id="矩形备份-10" class="cls-11" x="64" y="64" width="8" height="2" rx="0.5"/><rect id="矩形备份-9" class="cls-11" x="50" y="64" width="8" height="2" rx="0.5"/><rect id="矩形备份-8-2" data-name="矩形备份-8" class="cls-11" x="36" y="64" width="8" height="2" rx="0.5"/><rect id="矩形备份-7-2" data-name="矩形备份-7" class="cls-11" x="64" y="56" width="8" height="2" rx="0.5"/><rect id="矩形备份-6-2" data-name="矩形备份-6" class="cls-11" x="50" y="56" width="8" height="2" rx="0.5"/><rect id="矩形备份-5-2" data-name="矩形备份-5" class="cls-11" x="36" y="56" width="8" height="2" rx="0.5"/><rect id="矩形备份-4-2" data-name="矩形备份-4" class="cls-11" x="64" y="48" width="8" height="2" rx="0.5"/><rect id="矩形备份-3-2" data-name="矩形备份-3" class="cls-11" x="50" y="48" width="8" height="2" rx="0.5"/><rect id="矩形备份-2-2" data-name="矩形备份-2" class="cls-11" x="36" y="48" width="8" height="2" rx="0.5"/><rect id="矩形备份-9-2" data-name="矩形备份" class="cls-11" x="64" y="40" width="8" height="2" rx="0.5"/><rect id="矩形备份-10-2" data-name="矩形备份" class="cls-11" x="50" y="40" width="8" height="2" rx="0.5"/><rect id="矩形备份-11" data-name="矩形备份" class="cls-11" x="36" y="40" width="8" height="2" rx="0.5"/></g><path class="cls-12" d="M83.83,23.2a.85.85,0,0,1,.84.84V74a.84.84,0,0,1-.84.84H6.17A.84.84,0,0,1,5.33,74V24a.85.85,0,0,1,.84-.84H83.83m0-.8H6.17A1.64,1.64,0,0,0,4.53,24V74a1.64,1.64,0,0,0,1.64,1.64H83.83A1.64,1.64,0,0,0,85.47,74V24a1.64,1.64,0,0,0-1.64-1.64Z"/></svg>