<?xml version="1.0" standalone="no"?><!DOCTYPE svg PUBLIC "-//W3C//DTD SVG 1.1//EN" "http://www.w3.org/Graphics/SVG/1.1/DTD/svg11.dtd"><svg t="1662938941298" class="icon" viewBox="0 0 1024 1024" version="1.1" xmlns="http://www.w3.org/2000/svg" p-id="3729" xmlns:xlink="http://www.w3.org/1999/xlink" width="200" height="200"><path d="M912 144l0.032 336.384a325.312 325.312 0 0 0-32.032 0V368h-736v416h432.384a325.312 325.312 0 0 0 0 32.032L112 816v-672h800z m-32 32h-736v160h736v-160z" fill="#646E7F" p-id="3730"></path><path d="M256 480h512v192H256z" fill="#00C296" p-id="3731"></path><path d="M879.968 784h-230.08v32H880a32 32 0 0 0 31.776-28.256l0.224-3.744v-147.52h48.128l-64.032-96-70.944 96H880l-0.032 147.52z" fill="#007EE6" p-id="3732"></path><path d="M224 256m-32 0a32 32 0 1 0 64 0 32 32 0 1 0-64 0Z" fill="#F74C4C" p-id="3733"></path><path d="M320 256m-32 0a32 32 0 1 0 64 0 32 32 0 1 0-64 0Z" fill="#F5A623" p-id="3734"></path><path d="M416 256m-32 0a32 32 0 1 0 64 0 32 32 0 1 0-64 0Z" fill="#00C296" p-id="3735"></path></svg>